<?xml version="1.0" encoding="UTF-8" standalone="no"?>
<svg
   width="210"
   height="86"
   version="1.1"
   viewBox="0 0 55.562 22.754"
   id="svg930"
   sodipodi:docname="btn_tirar.svg"
   inkscape:version="1.1.2 (b8e25be833, 2022-02-05)"
   xmlns:inkscape="http://www.inkscape.org/namespaces/inkscape"
   xmlns:sodipodi="http://sodipodi.sourceforge.net/DTD/sodipodi-0.dtd"
   xmlns:xlink="http://www.w3.org/1999/xlink"
   xmlns="http://www.w3.org/2000/svg"
   xmlns:svg="http://www.w3.org/2000/svg"
   xmlns:rdf="http://www.w3.org/1999/02/22-rdf-syntax-ns#"
   xmlns:cc="http://creativecommons.org/ns#"
   xmlns:dc="http://purl.org/dc/elements/1.1/">
  <sodipodi:namedview
     id="namedview932"
     pagecolor="#ffffff"
     bordercolor="#666666"
     borderopacity="1.0"
     inkscape:pageshadow="2"
     inkscape:pageopacity="0.0"
     inkscape:pagecheckerboard="0"
     showgrid="false"
     inkscape:zoom="2.7442477"
     inkscape:cx="76.341504"
     inkscape:cy="14.575943"
     inkscape:window-width="1360"
     inkscape:window-height="705"
     inkscape:window-x="-8"
     inkscape:window-y="-8"
     inkscape:window-maximized="1"
     inkscape:current-layer="svg930" />
  <defs
     id="defs882">
    <linearGradient
       inkscape:collect="always"
       id="linearGradient31237">
      <stop
         style="stop-color:#ff7f2a;stop-opacity:1;"
         offset="0"
         id="stop31233" />
      <stop
         style="stop-color:#ff7f2a;stop-opacity:0;"
         offset="1"
         id="stop31235" />
    </linearGradient>
    <filter
       id="filter3248"
       x="-0.024701732"
       y="-0.060632296"
       width="1.0493049"
       height="1.1212704"
       color-interpolation-filters="sRGB">
      <feGaussianBlur
         stdDeviation="0.24949708"
         id="feGaussianBlur879" />
    </filter>
    <linearGradient
       inkscape:collect="always"
       xlink:href="#linearGradient31237"
       id="linearGradient31241"
       x1="14.003621"
       y1="7.1130548"
       x2="34.617283"
       y2="7.1130548"
       gradientUnits="userSpaceOnUse" />
    <filter
       inkscape:collect="always"
       style="color-interpolation-filters:sRGB"
       id="filter31265"
       x="-0.0059225369"
       y="-0.014054134"
       width="1.0118451"
       height="1.0281083">
      <feGaussianBlur
         inkscape:collect="always"
         stdDeviation="0.050868825"
         id="feGaussianBlur31267" />
    </filter>
    <filter
       inkscape:collect="always"
       style="color-interpolation-filters:sRGB"
       id="filter31265-1"
       x="-0.0059225369"
       y="-0.014054134"
       width="1.0118451"
       height="1.0281083">
      <feGaussianBlur
         inkscape:collect="always"
         stdDeviation="0.050868825"
         id="feGaussianBlur31267-6" />
    </filter>
  </defs>
  <metadata
     id="metadata884">
    <rdf:RDF>
      <cc:Work
         rdf:about="">
        <dc:format>image/svg+xml</dc:format>
        <dc:type
           rdf:resource="http://purl.org/dc/dcmitype/StillImage" />
        <dc:title />
      </cc:Work>
    </rdf:RDF>
  </metadata>
  <g
     transform="translate(6.5215 4.0976)"
     id="g928">
    <g
       transform="matrix(1.0034 0 0 1.0003 50.002 -24.539)"
       id="g898">
      <path
         d="m-55.992 31.727 6.5996-10.913 41.695-0.08671 6.4032 10.99-6.3948 11.176-41.437-0.01121z"
         fill="#fff"
         stroke="#502d16"
         stroke-width=".58208"
         id="path886" />
      <path
         d="m-54.312 31.843 51.212-0.15263-5.7432 9.8603-39.6-0.04678z"
         fill="#0085ff"
         fill-opacity=".39969"
         id="path888" />
      <path
         d="m-55.388 31.721 6.3263-10.326 41.011-0.13814 6.1182 10.416-6.1174 10.681-40.73 0.02222z"
         fill="#0085ff"
         fill-opacity=".39969"
         stroke="#c87137"
         stroke-width=".88943"
         id="path890" />
      <path
         d="m-8.7664 22.288 5.6661 9.402-5.7432 9.8603-39.6-0.04678-5.8688-9.6609 5.8253-9.5207z"
         fill="none"
         filter="url(#filter3248)"
         stroke="#005297"
         stroke-width="1.1377"
         id="path892" />
      <path
         d="m-47.634 40.154 37.728-0.08565 5.2336-8.4665-6.062 7.0832z"
         fill="#fff"
         id="path894" />
      <path
         d="m-10.174 23.438-37.728 0.08565-5.2336 8.4665 6.062-7.0832z"
         fill="#fff"
         id="path896" />
    </g>
    <g
       transform="translate(.08702 .10596)"
       id="g926">
      <g
         transform="translate(28.424 -16.766)"
         id="g924">
        <g
           stroke="#0059ab"
           stroke-linejoin="round"
           stroke-width="1.4764"
           id="g910">
          <path
             transform="translate(24.512 14.249)"
             d="m-40.741 6.2704q0.29633 0.22225 0.29633 0.68791-0.01058 0.381-0.23283 0.5715-0.13758 0.11642-0.35983 0.15875-0.22225 0.042333-0.66675 0.021167h-0.03175q-0.03175 0-0.127-0.010583-0.32808-0.021167-0.47625 0.010583-0.03175 0.010583-0.0635 0.03175-0.0635 0.042333-0.09525 0.14817-0.07408 0.20108-0.05292 0.64558v0.10583q0.01058 0.09525 0.01058 0.09525 0 0.10583 0 0.37042v0.1905l0.01058 0.16933q0 0.254 0 0.381 0 0.8255 0 1.6298 0 0.0635 0 0.21167 0 0.91016-0.1905 1.2912-0.07408 0.21167-0.1905 0.29633-0.11642 0.09525-0.33867 0.10583-0.127 0.01058-0.23283 0.01058-0.45508 0-0.6985-0.16933-0.11642-0.08467-0.1905-0.1905-0.0635-0.11642-0.09525-0.26458-0.02117-0.14817-0.03175-0.24342 0-0.09525 0-0.24342v-0.21166q0.01058-0.29633 0.01058-0.64558v-0.16933l0.01058-2.3389q0-0.084666 0.01058-0.26458 0.03175-0.51858-0.04233-0.6985-0.07408-0.20108-0.39158-0.3175-0.15875-0.052916-0.45508-0.03175h-0.02117q-0.29633 0.021167-0.59266 0.03175-0.22225 0-0.3175-0.074083-0.14817-0.09525-0.1905-0.381-0.05292-0.33867 0-0.55033 0.08467-0.32808 0.34925-0.4445 0.03175-0.010583 0.09525-0.03175h0.03175l0.10583-0.021167v0.010583q0.07408-0.010583 0.13758-0.010583h1.0266l3.1538-0.010583q0.11642 0 0.17992 0 0.32808-0.010583 0.52916 0.074083l0.08467 0.052917h0.01058t0.01058 0.010583h0.01058q0.01058 0.010583 0.01058 0.010583z"
             style="paint-order:markers stroke fill;shape-inside:url(#rect853);white-space:pre"
             id="path900" />
          <path
             transform="translate(24.512 14.249)"
             d="m-37.872 12.536q0 0.0635-0.01058 0.14817v0.03175l-0.01058 0.127v-0.01058q-0.02117 0.08467-0.05292 0.14817-0.127 0.27516-0.47625 0.35983l0.01058 0.01058-0.11642 0.01058h-0.03175q-0.08467 0.01058-0.14817 0.01058-0.03175 0-0.07408 0-0.11642-0.01058-0.28575-0.03175-0.45508-0.05292-0.60325-0.26458-0.09525-0.127-0.11642-0.41275-0.07408-0.762-0.08467-1.7039v-0.13758q0-0.24342 0-0.508v-0.13758q0.01058-0.41275 0.02117-1.2277 0.03175-1.2171 0.02117-1.8203v-0.12699q0-0.52916 0.27517-0.78316 0.16933-0.14817 0.46566-0.21167h-0.01058l0.15875-0.021167h0.02117q0.58208-0.03175 0.85725 0.28575 0.20108 0.23283 0.16933 0.84666l-0.01058 0.084666q-0.01058 0.39158-0.02117 1.1642v0.084666q-0.01058 0.74083 0.02117 2.2331 0.03175 1.2382 0.03175 1.8521z"
             style="paint-order:markers stroke fill;shape-inside:url(#rect853);white-space:pre"
             id="path902" />
          <path
             transform="translate(24.512 14.249)"
             d="m-30.972 12.314q0.127 0.29633 0.03175 0.53975-0.07408 0.22225-0.32808 0.37042-0.45508 0.27517-0.99483 0.09525-0.1905-0.0635-0.34925-0.1905-0.15875-0.13758-0.24342-0.24342-0.07408-0.11642-0.22225-0.32808l-0.3175-0.48683-0.35983-0.53975-0.04233-0.07408q-0.23283-0.35983-0.4445-0.46566-0.13758-0.0635-0.24342-0.03175-0.09525 0.03175-0.1905 0.16933-0.15875 0.23283-0.1905 0.56092-0.03175 0.3175 0 0.59266 0.02117 0.28575 0.02117 0.42333 0 0.22225-0.07408 0.34925-0.08467 0.14817-0.28575 0.23283-0.23283 0.10583-0.56092 0.10583-0.65616 0-0.889-0.35983-0.09525-0.14817-0.10583-0.46566-0.01058-0.1905-0.02117-0.43392v-0.20109q-0.01058-0.21167-0.01058-0.4445v-0.20109q0-0.32808 0.01058-0.97366 0.01058-0.66675 0.01058-1.0054v-1.8309q0-0.59266 0.10583-0.89958h0.01058t0-0.010583 0-0.010583l0.01058-0.021167q0.05292-0.11642 0.11642-0.1905 0.09525-0.11642 0.35983-0.17992 0.07408-0.021167 0.10583-0.03175 0.17992-0.042333 0.35983-0.084666 0 0 0.01058 0l0.07408-0.010583t0.01058 0 0.02117 0l0.0635-0.010583q0.39158-0.0635 0.93133-0.074083 1.0901-0.03175 1.7462 0.15875 0.67733 0.1905 1.1536 0.68791l0.01058 0.010583 0.10583 0.11642h-0.01058q0.28575 0.33867 0.43392 0.75141l0.04233 0.14817v0.021167q0.08467 0.30692 0.07408 0.60325 0 0.127-0.01058 0.26458-0.09525 0.79375-0.65616 1.3758-0.03175 0.02117-0.09525 0.09525-0.15875 0.14817-0.21167 0.23283-0.09525 0.127-0.09525 0.24342t0.04233 0.1905q0.04233 0.07408 0.15875 0.22225 0.0635 0.0635 0.08467 0.09525l0.55033 0.70908q0.22225 0.26458 0.29633 0.43392zm-3.2173-2.8998q0.14817 0.010583 0.3175-0.021167 0.5715-0.09525 0.77258-0.48683 0.13758-0.26458 0.09525-0.59266-0.04233-0.26458-0.1905-0.4445-0.16933-0.1905-0.46567-0.27517-0.20108-0.052916-0.56092-0.074083-0.05292 0-0.08467 0-0.11642 0-0.1905 0.021167-0.21167 0.084666-0.30692 0.34925-0.08467 0.254-0.07408 0.51858 0.01058 0.254 0.0635 0.49742 0.02117 0.10583 0.0635 0.17992 0.02117 0.0635 0.05292 0.09525 0.15875 0.20108 0.47625 0.22225z"
             style="paint-order:markers stroke fill;shape-inside:url(#rect853);white-space:pre"
             id="path904" />
          <path
             transform="translate(24.512 14.249)"
             d="m-23.807 12.927 0.03175-0.01058-0.08467 0.14817-0.01058 0.02117q-0.09525 0.15875-0.28575 0.24342-0.17992 0.09525-0.43392 0.09525-0.17992 0-0.381-0.04233-0.56092-0.10583-0.762-0.65616-0.03175-0.08467-0.07408-0.24342-0.10583-0.381-0.24342-0.508-0.04233-0.04233-0.09525-0.07408-0.27517-0.16933-0.94191-0.16933-0.04233 0-0.15875-0.01058-0.37042 0-0.52916 0.04233-0.11642 0.03175-0.20108 0.08467-0.21167 0.14817-0.39158 0.59266l-0.01058 0.04233h-0.01058q-0.07408 0.20108-0.127 0.30692-0.05292 0.10583-0.17992 0.254-0.11642 0.13758-0.28575 0.20108-0.24342 0.11642-0.53975 0.13758-0.28575 0.02117-0.56092-0.09525-0.28575-0.127-0.37042-0.43392-0.05292-0.16933 0.03175-0.49742 0.30692-1.2806 1.1959-3.7782l0.127-0.34925q0.22225-0.62441 0.34925-0.98425 0-0.010583 0.01058-0.03175 0.01058-0.03175 0.01058-0.03175l0.03175-0.09525 0.01058-0.03175q0.15875-0.43392 0.381-0.64558 0.35983-0.34925 1.1218-0.381 0.91016-0.021167 1.3652 0.43392 0.254 0.254 0.46566 0.91016 0.1905 0.59266 0.40217 1.2806l0.03175 0.084666q0.07408 0.23283 0.14817 0.47625l0.04233 0.14817v0.010583l0.01058 0.03175q0.33867 1.1218 0.84666 2.8575l0.01058 0.04233 0.01058 0.02117v0.01058l0.02117 0.04233h-0.01058q0.08467 0.32808 0.03175 0.55033zm-3.175-4.699q-0.02117-0.042333-0.04233-0.0635-0.02117-0.010583-0.04233-0.010583-0.02117 0-0.05292 0.010583-0.02117 0.021167-0.04233 0.042333-0.05292 0.042333-0.09525 0.1905-0.127 0.41275-0.28575 0.8255-0.03175 0.0635-0.10583 0.20108-0.16933 0.32808-0.15875 0.46567 0.01058 0.17992 0.15875 0.254 0.17992 0.08467 0.40217 0.0635 0.22225-0.02117 0.37042-0.09525 0.56092-0.29633 0.15875-1.3335-0.09525-0.23283-0.24342-0.51858z"
             style="paint-order:markers stroke fill;shape-inside:url(#rect853);white-space:pre"
             id="path906" />
          <path
             transform="translate(24.512 14.249)"
             d="m-17.277 12.314q0.127 0.29633 0.03175 0.53975-0.07408 0.22225-0.32808 0.37042-0.45508 0.27517-0.99483 0.09525-0.1905-0.0635-0.34925-0.1905-0.15875-0.13758-0.24342-0.24342-0.07408-0.11642-0.22225-0.32808l-0.3175-0.48683-0.35983-0.53975-0.04233-0.07408q-0.23283-0.35983-0.4445-0.46566-0.13758-0.0635-0.24342-0.03175-0.09525 0.03175-0.1905 0.16933-0.15875 0.23283-0.1905 0.56092-0.03175 0.3175 0 0.59266 0.02117 0.28575 0.02117 0.42333 0 0.22225-0.07408 0.34925-0.08467 0.14817-0.28575 0.23283-0.23283 0.10583-0.56092 0.10583-0.65616 0-0.889-0.35983-0.09525-0.14817-0.10583-0.46566-0.01058-0.1905-0.02117-0.43392v-0.20109q-0.01058-0.21167-0.01058-0.4445v-0.20109q0-0.32808 0.01058-0.97366 0.01058-0.66675 0.01058-1.0054v-1.8309q0-0.59266 0.10583-0.89958h0.01058t0-0.010583 0-0.010583l0.01058-0.021167q0.05292-0.11642 0.11642-0.1905 0.09525-0.11642 0.35983-0.17992 0.07408-0.021167 0.10583-0.03175 0.17992-0.042333 0.35983-0.084666 0 0 0.01058 0l0.07408-0.010583t0.01058 0 0.02117 0l0.0635-0.010583q0.39158-0.0635 0.93133-0.074083 1.0901-0.03175 1.7462 0.15875 0.67733 0.1905 1.1536 0.68791l0.01058 0.010583 0.10583 0.11642h-0.01058q0.28575 0.33867 0.43392 0.75141l0.04233 0.14817v0.021167q0.08467 0.30692 0.07408 0.60325 0 0.127-0.01058 0.26458-0.09525 0.79375-0.65616 1.3758-0.03175 0.02117-0.09525 0.09525-0.15875 0.14817-0.21167 0.23283-0.09525 0.127-0.09525 0.24342t0.04233 0.1905q0.04233 0.07408 0.15875 0.22225 0.0635 0.0635 0.08467 0.09525l0.55033 0.70908q0.22225 0.26458 0.29633 0.43392zm-3.2173-2.8998q0.14817 0.010583 0.3175-0.021167 0.5715-0.09525 0.77258-0.48683 0.13758-0.26458 0.09525-0.59266-0.04233-0.26458-0.1905-0.4445-0.16933-0.1905-0.46566-0.27517-0.20108-0.052916-0.56092-0.074083-0.05292 0-0.08467 0-0.11642 0-0.1905 0.021167-0.21167 0.084666-0.30692 0.34925-0.08467 0.254-0.07408 0.51858 0.01058 0.254 0.0635 0.49742 0.02117 0.10583 0.0635 0.17992 0.02117 0.0635 0.05292 0.09525 0.15875 0.20108 0.47625 0.22225z"
             style="paint-order:markers stroke fill;shape-inside:url(#rect853);white-space:pre"
             id="path908" />
        </g>
        <g
           transform="translate(24.452 14.217)"
           fill="#a0ff00"
           style="shape-inside:url(#rect853-1);white-space:pre"
           aria-label="TIRAR"
           id="g922">
          <path
             d="m-40.741 6.2704q0.29633 0.22225 0.29633 0.68791-0.01058 0.381-0.23283 0.5715-0.13758 0.11642-0.35983 0.15875-0.22225 0.042333-0.66675 0.021167h-0.03175q-0.03175 0-0.127-0.010583-0.32808-0.021167-0.47625 0.010583-0.03175 0.010583-0.0635 0.03175-0.0635 0.042333-0.09525 0.14817-0.07408 0.20108-0.05292 0.64558v0.10583q0.01058 0.09525 0.01058 0.09525 0 0.10583 0 0.37042v0.1905l0.01058 0.16933q0 0.254 0 0.381 0 0.8255 0 1.6298 0 0.0635 0 0.21167 0 0.91016-0.1905 1.2912-0.07408 0.21167-0.1905 0.29633-0.11642 0.09525-0.33867 0.10583-0.127 0.01058-0.23283 0.01058-0.45508 0-0.6985-0.16933-0.11642-0.08467-0.1905-0.1905-0.0635-0.11642-0.09525-0.26458-0.02117-0.14817-0.03175-0.24342 0-0.09525 0-0.24342v-0.21166q0.01058-0.29633 0.01058-0.64558v-0.16933l0.01058-2.3389q0-0.084666 0.01058-0.26458 0.03175-0.51858-0.04233-0.6985-0.07408-0.20108-0.39158-0.3175-0.15875-0.052916-0.45508-0.03175h-0.02117q-0.29633 0.021167-0.59266 0.03175-0.22225 0-0.3175-0.074083-0.14817-0.09525-0.1905-0.381-0.05292-0.33867 0-0.55033 0.08467-0.32808 0.34925-0.4445 0.03175-0.010583 0.09525-0.03175h0.03175l0.10583-0.021167v0.010583q0.07408-0.010583 0.13758-0.010583h1.0266l3.1538-0.010583q0.11642 0 0.17992 0 0.32808-0.010583 0.52916 0.074083l0.08467 0.052917h0.01058t0.01058 0.010583h0.01058q0.01058 0.010583 0.01058 0.010583z"
             id="path912" />
          <path
             d="m-37.872 12.536q0 0.0635-0.01058 0.14817v0.03175l-0.01058 0.127v-0.01058q-0.02117 0.08467-0.05292 0.14817-0.127 0.27516-0.47625 0.35983l0.01058 0.01058-0.11642 0.01058h-0.03175q-0.08467 0.01058-0.14817 0.01058-0.03175 0-0.07408 0-0.11642-0.01058-0.28575-0.03175-0.45508-0.05292-0.60325-0.26458-0.09525-0.127-0.11642-0.41275-0.07408-0.762-0.08467-1.7039v-0.13758q0-0.24342 0-0.508v-0.13758q0.01058-0.41275 0.02117-1.2277 0.03175-1.2171 0.02117-1.8203v-0.12699q0-0.52916 0.27517-0.78316 0.16933-0.14817 0.46566-0.21167h-0.01058l0.15875-0.021167h0.02117q0.58208-0.03175 0.85725 0.28575 0.20108 0.23283 0.16933 0.84666l-0.01058 0.084666q-0.01058 0.39158-0.02117 1.1642v0.084666q-0.01058 0.74083 0.02117 2.2331 0.03175 1.2382 0.03175 1.8521z"
             id="path914" />
          <path
             d="m-30.972 12.314q0.127 0.29633 0.03175 0.53975-0.07408 0.22225-0.32808 0.37042-0.45508 0.27517-0.99483 0.09525-0.1905-0.0635-0.34925-0.1905-0.15875-0.13758-0.24342-0.24342-0.07408-0.11642-0.22225-0.32808l-0.3175-0.48683-0.35983-0.53975-0.04233-0.07408q-0.23283-0.35983-0.4445-0.46566-0.13758-0.0635-0.24342-0.03175-0.09525 0.03175-0.1905 0.16933-0.15875 0.23283-0.1905 0.56092-0.03175 0.3175 0 0.59266 0.02117 0.28575 0.02117 0.42333 0 0.22225-0.07408 0.34925-0.08467 0.14817-0.28575 0.23283-0.23283 0.10583-0.56092 0.10583-0.65616 0-0.889-0.35983-0.09525-0.14817-0.10583-0.46566-0.01058-0.1905-0.02117-0.43392v-0.20109q-0.01058-0.21167-0.01058-0.4445v-0.20109q0-0.32808 0.01058-0.97366 0.01058-0.66675 0.01058-1.0054v-1.8309q0-0.59266 0.10583-0.89958h0.01058t0-0.010583 0-0.010583l0.01058-0.021167q0.05292-0.11642 0.11642-0.1905 0.09525-0.11642 0.35983-0.17992 0.07408-0.021167 0.10583-0.03175 0.17992-0.042333 0.35983-0.084666 0 0 0.01058 0l0.07408-0.010583t0.01058 0 0.02117 0l0.0635-0.010583q0.39158-0.0635 0.93133-0.074083 1.0901-0.03175 1.7462 0.15875 0.67733 0.1905 1.1536 0.68791l0.01058 0.010583 0.10583 0.11642h-0.01058q0.28575 0.33867 0.43392 0.75141l0.04233 0.14817v0.021167q0.08467 0.30692 0.07408 0.60325 0 0.127-0.01058 0.26458-0.09525 0.79375-0.65616 1.3758-0.03175 0.02117-0.09525 0.09525-0.15875 0.14817-0.21167 0.23283-0.09525 0.127-0.09525 0.24342t0.04233 0.1905q0.04233 0.07408 0.15875 0.22225 0.0635 0.0635 0.08467 0.09525l0.55033 0.70908q0.22225 0.26458 0.29633 0.43392zm-3.2173-2.8998q0.14817 0.010583 0.3175-0.021167 0.5715-0.09525 0.77258-0.48683 0.13758-0.26458 0.09525-0.59266-0.04233-0.26458-0.1905-0.4445-0.16933-0.1905-0.46567-0.27517-0.20108-0.052916-0.56092-0.074083-0.05292 0-0.08467 0-0.11642 0-0.1905 0.021167-0.21167 0.084666-0.30692 0.34925-0.08467 0.254-0.07408 0.51858 0.01058 0.254 0.0635 0.49742 0.02117 0.10583 0.0635 0.17992 0.02117 0.0635 0.05292 0.09525 0.15875 0.20108 0.47625 0.22225z"
             id="path916" />
          <path
             d="m-23.807 12.927 0.03175-0.01058-0.08467 0.14817-0.01058 0.02117q-0.09525 0.15875-0.28575 0.24342-0.17992 0.09525-0.43392 0.09525-0.17992 0-0.381-0.04233-0.56092-0.10583-0.762-0.65616-0.03175-0.08467-0.07408-0.24342-0.10583-0.381-0.24342-0.508-0.04233-0.04233-0.09525-0.07408-0.27517-0.16933-0.94191-0.16933-0.04233 0-0.15875-0.01058-0.37042 0-0.52916 0.04233-0.11642 0.03175-0.20108 0.08467-0.21167 0.14817-0.39158 0.59266l-0.01058 0.04233h-0.01058q-0.07408 0.20108-0.127 0.30692-0.05292 0.10583-0.17992 0.254-0.11642 0.13758-0.28575 0.20108-0.24342 0.11642-0.53975 0.13758-0.28575 0.02117-0.56092-0.09525-0.28575-0.127-0.37042-0.43392-0.05292-0.16933 0.03175-0.49742 0.30692-1.2806 1.1959-3.7782l0.127-0.34925q0.22225-0.62441 0.34925-0.98425 0-0.010583 0.01058-0.03175 0.01058-0.03175 0.01058-0.03175l0.03175-0.09525 0.01058-0.03175q0.15875-0.43392 0.381-0.64558 0.35983-0.34925 1.1218-0.381 0.91016-0.021167 1.3652 0.43392 0.254 0.254 0.46566 0.91016 0.1905 0.59266 0.40217 1.2806l0.03175 0.084666q0.07408 0.23283 0.14817 0.47625l0.04233 0.14817v0.010583l0.01058 0.03175q0.33867 1.1218 0.84666 2.8575l0.01058 0.04233 0.01058 0.02117v0.01058l0.02117 0.04233h-0.01058q0.08467 0.32808 0.03175 0.55033zm-3.175-4.699q-0.02117-0.042333-0.04233-0.0635-0.02117-0.010583-0.04233-0.010583-0.02117 0-0.05292 0.010583-0.02117 0.021167-0.04233 0.042333-0.05292 0.042333-0.09525 0.1905-0.127 0.41275-0.28575 0.8255-0.03175 0.0635-0.10583 0.20108-0.16933 0.32808-0.15875 0.46567 0.01058 0.17992 0.15875 0.254 0.17992 0.08467 0.40217 0.0635 0.22225-0.02117 0.37042-0.09525 0.56092-0.29633 0.15875-1.3335-0.09525-0.23283-0.24342-0.51858z"
             id="path918" />
          <path
             d="m-17.277 12.314q0.127 0.29633 0.03175 0.53975-0.07408 0.22225-0.32808 0.37042-0.45508 0.27517-0.99483 0.09525-0.1905-0.0635-0.34925-0.1905-0.15875-0.13758-0.24342-0.24342-0.07408-0.11642-0.22225-0.32808l-0.3175-0.48683-0.35983-0.53975-0.04233-0.07408q-0.23283-0.35983-0.4445-0.46566-0.13758-0.0635-0.24342-0.03175-0.09525 0.03175-0.1905 0.16933-0.15875 0.23283-0.1905 0.56092-0.03175 0.3175 0 0.59266 0.02117 0.28575 0.02117 0.42333 0 0.22225-0.07408 0.34925-0.08467 0.14817-0.28575 0.23283-0.23283 0.10583-0.56092 0.10583-0.65616 0-0.889-0.35983-0.09525-0.14817-0.10583-0.46566-0.01058-0.1905-0.02117-0.43392v-0.20109q-0.01058-0.21167-0.01058-0.4445v-0.20109q0-0.32808 0.01058-0.97366 0.01058-0.66675 0.01058-1.0054v-1.8309q0-0.59266 0.10583-0.89958h0.01058t0-0.010583 0-0.010583l0.01058-0.021167q0.05292-0.11642 0.11642-0.1905 0.09525-0.11642 0.35983-0.17992 0.07408-0.021167 0.10583-0.03175 0.17992-0.042333 0.35983-0.084666 0 0 0.01058 0l0.07408-0.010583t0.01058 0 0.02117 0l0.0635-0.010583q0.39158-0.0635 0.93133-0.074083 1.0901-0.03175 1.7462 0.15875 0.67733 0.1905 1.1536 0.68791l0.01058 0.010583 0.10583 0.11642h-0.01058q0.28575 0.33867 0.43392 0.75141l0.04233 0.14817v0.021167q0.08467 0.30692 0.07408 0.60325 0 0.127-0.01058 0.26458-0.09525 0.79375-0.65616 1.3758-0.03175 0.02117-0.09525 0.09525-0.15875 0.14817-0.21167 0.23283-0.09525 0.127-0.09525 0.24342t0.04233 0.1905q0.04233 0.07408 0.15875 0.22225 0.0635 0.0635 0.08467 0.09525l0.55033 0.70908q0.22225 0.26458 0.29633 0.43392zm-3.2173-2.8998q0.14817 0.010583 0.3175-0.021167 0.5715-0.09525 0.77258-0.48683 0.13758-0.26458 0.09525-0.59266-0.04233-0.26458-0.1905-0.4445-0.16933-0.1905-0.46566-0.27517-0.20108-0.052916-0.56092-0.074083-0.05292 0-0.08467 0-0.11642 0-0.1905 0.021167-0.21167 0.084666-0.30692 0.34925-0.08467 0.254-0.07408 0.51858 0.01058 0.254 0.0635 0.49742 0.02117 0.10583 0.0635 0.17992 0.02117 0.0635 0.05292 0.09525 0.15875 0.20108 0.47625 0.22225z"
             id="path920" />
        </g>
      </g>
    </g>
  </g>
  <rect
     style="fill:#99ceff;fill-opacity:1;stroke-width:0.264581"
     id="rect3671"
     width="34.905266"
     height="4.8403788"
     x="10.976024"
     y="6.4083891"
     ry="2.4201894" />
  <rect
     style="fill:#5cb1ff;fill-opacity:1;stroke-width:0.265896"
     id="rect7502"
     width="31.138636"
     height="5.6243834"
     x="12.475859"
     y="11.282855"
     ry="1.0288506" />
  <rect
     style="fill:#99ceff;fill-opacity:1;stroke-width:0.264581"
     id="rect11153"
     width="28.928162"
     height="0.96783519"
     x="13.941608"
     y="10.328413"
     ry="0" />
  <text
     xml:space="preserve"
     style="font-style:normal;font-weight:normal;font-size:10.5833px;line-height:1.25;font-family:sans-serif;fill:#eb7f2a;fill-opacity:1;stroke:none;stroke-width:0.264581;filter:url(#filter31265)"
     x="16.737589"
     y="14.670707"
     id="text13843"><tspan
       id="tspan13841"
       style="font-style:normal;font-variant:normal;font-weight:normal;font-stretch:normal;font-family:Impact;-inkscape-font-specification:Impact;fill:#eb7f2a;fill-opacity:1;stroke-width:0.264581"
       x="16.737589"
       y="14.670707"
       sodipodi:role="line">1000</tspan></text>
  <text
     xml:space="preserve"
     style="font-style:normal;font-weight:normal;font-size:10.5833px;line-height:1.25;font-family:sans-serif;fill:#803300;fill-opacity:0.47572815;stroke:none;stroke-width:0.264581;filter:url(#filter31265-1)"
     x="17.012424"
     y="14.69222"
     id="text13843-5"><tspan
       id="tspan13841-1"
       style="font-style:normal;font-variant:normal;font-weight:normal;font-stretch:normal;font-family:Impact;-inkscape-font-specification:Impact;fill:#803300;fill-opacity:0.47572815;stroke-width:0.264581"
       x="17.012424"
       y="14.69222"
       sodipodi:role="line">1000</tspan></text>
</svg>
